# xmcd
#
# Track frame offsets:
#	150
#	15361
#	33796
#	59394
#	74212
#	98614
#	113911
#	127016
#	144442
#	157578
#	172036
#
# Disc length: 2505 seconds
#
# Revision: 0
# Processed by: cddbd v1.5.2PL0 Copyright (c) Steve Scherf et al.
# Submitted via: dBpowerAMP V4.0
#
DISCID=8c09c70b
DTITLE=fred klee band - don't mess with my gator
DYEAR=1900
DGENRE=Blues
TTITLE0=down at rampart
TTITLE1=deadeyes generation
TTITLE2=since i've been loving you
TTITLE3=i've got my mind ramblin'
TTITLE4=bad love
TTITLE5=my baby doggy cool
TTITLE6=it'stoo late
TTITLE7=goodbye to genoa
TTITLE8=i'm tired
TTITLE9=blues power
TTITLE10=feel the train' coming
EXTD=
EXTT0=
EXTT1=
EXTT2=
EXTT3=
EXTT4=
EXTT5=
EXTT6=
EXTT7=
EXTT8=
EXTT9=
EXTT10=
PLAYORDER=
